<svg xmlns="http://www.w3.org/2000/svg"><symbol id="imagea" viewBox="0 0 256 256"><path d="M103.7 156.91l-35.33 18.6-2.93-4.18 18.4-21.74h13.8l6.06 7.32zm2.93 3.34l8.57 10.46H86.77l19.86-10.46zm46.62-10.66l-17.56 21.12h-15.05l-17.57-21.12h50.18zm-3.55 10.66l19.86 10.46h-28.44l8.58-10.46zm-63.14-29.89C84.47 125.55 84 119.9 84 114.47a45.26 45.26 0 0 1 90.52 0 50.66 50.66 0 0 1-2.5 15.89zm-14.43 4.18h114.36v10.87H72.13zm100.35 15.05l18.4 21.95-2.92 3.97-35.55-18.6 6.28-7.32h13.79z"/><path d="M128.17.55L17.92 64.2v127.3l110.25 63.65 110.24-63.65V64.2zm66.89 172l-4.81 6.9a2.21 2.21 0 0 1-2.71.62l-10-5.22H78.61l-10 5.22a2.29 2.29 0 0 1-2.72-.62L61 172.59a2.19 2.19 0 0 1 .21-2.51l17.35-20.49H70a2 2 0 0 1-2-2.09v-15a2 2 0 0 1 2-2.14h12.17a58.2 58.2 0 0 1-2.3-15.89 49.45 49.45 0 0 1 98.89 0 51.42 51.42 0 0 1-2.3 15.89h12.12a2 2 0 0 1 2.09 2.09v15a2 2 0 0 1-2.09 2.09h-10.66l17.14 20.49a2.19 2.19 0 0 1 0 2.56z"/></symbol><symbol id="imageb" viewBox="0 0 256 256"><path d="M125.58 81.26l-33.31 46.5H69.86c6.49-25.35 28.91-44.83 55.72-46.5zm2.09 4.19v42.31H97.51l30.16-42.31zm-56.34 62.21h56.34v23.25H71.33zm60.53 0h9.43v23.25h-9.43zm13.62 0h42.73v23.25h-42.73zm44.2-19.9h-57.82V81a62.28 62.28 0 0 1 57.82 46.76zm-130.29 4.19h140.76v11.52H59.39z"/><path d="M129.77.43L19.32 64.2v127.55l110.45 63.77 110.46-63.77V64.2zM220 147.66h-27.6V173a2 2 0 0 1-2.09 2.09H69.23a2 2 0 0 1-2.09-2.09v-25.34H39.49a2.1 2.1 0 1 1 0-4.19H55.2v-13.61a2 2 0 0 1 2.09-2.1h8.17a66.41 66.41 0 0 1 64.1-50.9c.21-.21.42-.21.84 0 31 .21 56.76 22 63.68 50.9h8.17a2 2 0 0 1 2.09 2.1v13.61H220a2.1 2.1 0 1 1 0 4.19z"/></symbol><symbol id="imagec" viewBox="0 0 256 256"><path d="M79.65 157.31h13.36v13.16H79.65zm17.54 0h20.88v13.16H97.19zm25.06 0h13.37v13.16h-13.37zm17.54 0h20.89v13.16h-20.89zM174.88 112H83c1-27 21.5-41.78 45.93-41.78S173.83 85 174.88 112zm-10.03 45.31h13.37v13.16h-13.37zm-97.74-41.14h123.64v36.96H67.11z"/><path d="M128.94.5L18.81 64.08v127.16l110.13 63.58 110.12-63.58V64.08zm66 154.72a2 2 0 0 1-2.09 2.09H182.4v13.16h10.44a2.09 2.09 0 1 1 0 4.17H65a2.09 2.09 0 1 1 0-4.17h10.47v-13.16H65a2 2 0 0 1-2.09-2.09v-41.14A2 2 0 0 1 65 112h13.81c1.05-29.66 23.19-46 50.12-46s49.07 16.34 50.13 46h13.78a2 2 0 0 1 2.09 2.09z"/><path fill="#fff" d="M178.85 138.93h-51a2.09 2.09 0 1 0 0 4.18h51a2.09 2.09 0 0 0 0-4.18zm0 0h-51a2.09 2.09 0 1 0 0 4.18h51a2.09 2.09 0 0 0 0-4.18zm0 0h-51a2.09 2.09 0 1 0 0 4.18h51a2.09 2.09 0 0 0 0-4.18z"/></symbol></svg>